<svg width="260" height="72" viewBox="0 0 260 72" fill="none" xmlns="http://www.w3.org/2000/svg">
<path d="M12.7 35V11.42H16.336V21.104H25.264V11.42H28.9V35H25.264V24.236H16.336V35H12.7ZM43.4659 35.432C42.1219 35.432 40.8739 35.228 39.7219 34.82C38.5699 34.412 37.5619 33.812 36.6979 33.02C35.8339 32.228 35.1499 31.256 34.6459 30.104C34.1659 28.952 33.9259 27.644 33.9259 26.18C33.9259 24.74 34.1779 23.456 34.6819 22.328C35.1859 21.176 35.8459 20.204 36.6619 19.412C37.5019 18.62 38.4619 18.02 39.5419 17.612C40.6219 17.18 41.7499 16.964 42.9259 16.964C44.2219 16.964 45.3739 17.168 46.3819 17.576C47.3899 17.984 48.2299 18.56 48.9019 19.304C49.5979 20.024 50.1259 20.9 50.4859 21.932C50.8459 22.94 51.0259 24.056 51.0259 25.28C51.0259 25.664 51.0139 26.024 50.9899 26.36C50.9659 26.696 50.9299 26.984 50.8819 27.224H37.4899C37.6819 29.048 38.3659 30.404 39.5419 31.292C40.7419 32.18 42.2059 32.624 43.9339 32.624C44.9179 32.624 45.8179 32.492 46.6339 32.228C47.4499 31.94 48.2539 31.556 49.0459 31.076L50.3059 33.344C49.3939 33.944 48.3619 34.448 47.2099 34.856C46.0819 35.24 44.8339 35.432 43.4659 35.432ZM43.0339 19.772C42.3619 19.772 41.7259 19.88 41.1259 20.096C40.5259 20.288 39.9859 20.588 39.5059 20.996C39.0259 21.404 38.6179 21.908 38.2819 22.508C37.9459 23.108 37.7059 23.804 37.5619 24.596H47.8219C47.7019 22.988 47.2099 21.788 46.3459 20.996C45.5059 20.18 44.4019 19.772 43.0339 19.772ZM62.7839 35.432C61.6319 35.432 60.5879 35.228 59.6519 34.82C58.7399 34.412 57.9479 33.812 57.2759 33.02C56.6039 32.228 56.0879 31.268 55.7279 30.14C55.3679 28.988 55.1879 27.68 55.1879 26.216C55.1879 24.776 55.4039 23.492 55.8359 22.364C56.2919 21.212 56.8799 20.24 57.5999 19.448C58.3439 18.656 59.1839 18.044 60.1199 17.612C61.0799 17.18 62.0639 16.964 63.0719 16.964C64.1039 16.964 65.0159 17.156 65.8079 17.54C66.6239 17.924 67.3919 18.464 68.1119 19.16H68.2199L68.0399 16.028V9.476H71.6039V35H68.6879L68.3999 32.84H68.2919C67.5959 33.536 66.7679 34.148 65.8079 34.676C64.8479 35.18 63.8399 35.432 62.7839 35.432ZM63.6119 32.48C65.1959 32.48 66.6719 31.688 68.0399 30.104V21.752C67.3439 21.08 66.6479 20.612 65.9519 20.348C65.2559 20.084 64.5599 19.952 63.8639 19.952C63.1679 19.952 62.5199 20.096 61.9199 20.384C61.3199 20.672 60.7919 21.092 60.3359 21.644C59.8799 22.172 59.5199 22.82 59.2559 23.588C58.9919 24.356 58.8599 25.22 58.8599 26.18C58.8599 28.22 59.2679 29.78 60.0839 30.86C60.9239 31.94 62.0999 32.48 63.6119 32.48ZM85.2338 42.956C82.7138 42.956 80.7338 42.548 79.2938 41.732C77.8778 40.916 77.1698 39.728 77.1698 38.168C77.1698 36.68 78.1178 35.408 80.0138 34.352V34.208C79.5338 33.944 79.1138 33.584 78.7538 33.128C78.3938 32.648 78.2138 32.036 78.2138 31.292C78.2138 30.716 78.3938 30.14 78.7538 29.564C79.1378 28.964 79.6538 28.436 80.3018 27.98V27.836C79.6778 27.38 79.1498 26.78 78.7178 26.036C78.3098 25.268 78.1058 24.356 78.1058 23.3C78.1058 22.316 78.2978 21.44 78.6818 20.672C79.0658 19.88 79.5818 19.208 80.2298 18.656C80.8778 18.104 81.6218 17.684 82.4618 17.396C83.3258 17.108 84.2378 16.964 85.1978 16.964C86.1818 16.964 87.0698 17.108 87.8618 17.396H95.0978V20.204H90.8138C91.1498 20.588 91.4498 21.068 91.7138 21.644C91.9778 22.196 92.1098 22.784 92.1098 23.408C92.1098 24.368 91.9298 25.22 91.5698 25.964C91.2098 26.708 90.7178 27.344 90.0938 27.872C89.4698 28.376 88.7378 28.76 87.8978 29.024C87.0578 29.288 86.1578 29.42 85.1978 29.42C84.7658 29.42 84.2978 29.372 83.7938 29.276C83.3138 29.18 82.8338 29.036 82.3538 28.844C81.5378 29.372 81.1298 29.984 81.1298 30.68C81.1298 31.904 82.2938 32.516 84.6218 32.516H88.3658C90.6698 32.516 92.3858 32.84 93.5138 33.488C94.6418 34.136 95.2058 35.216 95.2058 36.728C95.2058 37.592 94.9658 38.396 94.4858 39.14C94.0298 39.908 93.3698 40.568 92.5058 41.12C91.6418 41.696 90.5858 42.14 89.3378 42.452C88.1138 42.788 86.7458 42.956 85.2338 42.956ZM85.1978 27.116C86.2058 27.116 87.0698 26.78 87.7898 26.108C88.5098 25.436 88.8698 24.5 88.8698 23.3C88.8698 22.148 88.5098 21.224 87.7898 20.528C87.0698 19.832 86.2058 19.484 85.1978 19.484C84.1898 19.484 83.3138 19.832 82.5698 20.528C81.8498 21.224 81.4898 22.148 81.4898 23.3C81.4898 24.5 81.8498 25.436 82.5698 26.108C83.3138 26.78 84.1898 27.116 85.1978 27.116ZM85.5938 40.472C86.5298 40.472 87.3698 40.376 88.1138 40.184C88.8818 40.016 89.5298 39.788 90.0578 39.5C90.5858 39.212 90.9938 38.876 91.2818 38.492C91.5698 38.132 91.7138 37.748 91.7138 37.34C91.7138 36.572 91.4018 36.056 90.7778 35.792C90.1538 35.528 89.2178 35.396 87.9698 35.396H84.8378C84.2858 35.396 83.7938 35.372 83.3618 35.324C82.9298 35.3 82.5338 35.228 82.1738 35.108C81.4298 35.516 80.9018 35.936 80.5898 36.368C80.3018 36.824 80.1578 37.28 80.1578 37.736C80.1578 38.576 80.6258 39.236 81.5618 39.716C82.4978 40.22 83.8418 40.472 85.5938 40.472ZM108.224 35.432C106.88 35.432 105.632 35.228 104.48 34.82C103.328 34.412 102.32 33.812 101.456 33.02C100.592 32.228 99.9078 31.256 99.4038 30.104C98.9238 28.952 98.6838 27.644 98.6838 26.18C98.6838 24.74 98.9358 23.456 99.4398 22.328C99.9438 21.176 100.604 20.204 101.42 19.412C102.26 18.62 103.22 18.02 104.3 17.612C105.38 17.18 106.508 16.964 107.684 16.964C108.98 16.964 110.132 17.168 111.14 17.576C112.148 17.984 112.988 18.56 113.66 19.304C114.356 20.024 114.884 20.9 115.244 21.932C115.604 22.94 115.784 24.056 115.784 25.28C115.784 25.664 115.772 26.024 115.748 26.36C115.724 26.696 115.688 26.984 115.64 27.224H102.248C102.44 29.048 103.124 30.404 104.3 31.292C105.5 32.18 106.964 32.624 108.692 32.624C109.676 32.624 110.576 32.492 111.392 32.228C112.208 31.94 113.012 31.556 113.804 31.076L115.064 33.344C114.152 33.944 113.12 34.448 111.968 34.856C110.84 35.24 109.592 35.432 108.224 35.432ZM107.792 19.772C107.12 19.772 106.484 19.88 105.884 20.096C105.284 20.288 104.744 20.588 104.264 20.996C103.784 21.404 103.376 21.908 103.04 22.508C102.704 23.108 102.464 23.804 102.32 24.596H112.58C112.46 22.988 111.968 21.788 111.104 20.996C110.264 20.18 109.16 19.772 107.792 19.772ZM121.098 35V9.476H124.662V16.244L124.446 20.204H124.554C125.394 19.292 126.318 18.524 127.326 17.9C128.358 17.276 129.558 16.964 130.926 16.964C132.99 16.964 134.502 17.576 135.462 18.8C136.422 20.024 136.902 21.788 136.902 24.092V35H133.338V24.56C133.338 23.024 133.062 21.896 132.51 21.176C131.958 20.432 131.01 20.06 129.666 20.06C128.73 20.06 127.89 20.3 127.146 20.78C126.402 21.236 125.574 21.932 124.662 22.868V35H121.098ZM150.316 35.432C149.164 35.432 148.06 35.228 147.004 34.82C145.948 34.412 145.012 33.812 144.196 33.02C143.38 32.228 142.732 31.268 142.252 30.14C141.772 28.988 141.532 27.68 141.532 26.216C141.532 24.752 141.772 23.444 142.252 22.292C142.732 21.14 143.38 20.168 144.196 19.376C145.012 18.584 145.948 17.984 147.004 17.576C148.06 17.168 149.164 16.964 150.316 16.964C151.468 16.964 152.572 17.168 153.628 17.576C154.684 17.984 155.62 18.584 156.436 19.376C157.252 20.168 157.9 21.14 158.38 22.292C158.86 23.444 159.1 24.752 159.1 26.216C159.1 27.68 158.86 28.988 158.38 30.14C157.9 31.268 157.252 32.228 156.436 33.02C155.62 33.812 154.684 34.412 153.628 34.82C152.572 35.228 151.468 35.432 150.316 35.432ZM150.316 32.516C151.9 32.516 153.148 31.94 154.06 30.788C154.972 29.636 155.428 28.112 155.428 26.216C155.428 24.32 154.972 22.796 154.06 21.644C153.148 20.492 151.9 19.916 150.316 19.916C148.732 19.916 147.484 20.492 146.572 21.644C145.66 22.796 145.204 24.32 145.204 26.216C145.204 28.112 145.66 29.636 146.572 30.788C147.484 31.94 148.732 32.516 150.316 32.516ZM171.578 42.956C169.058 42.956 167.078 42.548 165.638 41.732C164.222 40.916 163.514 39.728 163.514 38.168C163.514 36.68 164.462 35.408 166.358 34.352V34.208C165.878 33.944 165.458 33.584 165.098 33.128C164.738 32.648 164.558 32.036 164.558 31.292C164.558 30.716 164.738 30.14 165.098 29.564C165.482 28.964 165.998 28.436 166.646 27.98V27.836C166.022 27.38 165.494 26.78 165.062 26.036C164.654 25.268 164.45 24.356 164.45 23.3C164.45 22.316 164.642 21.44 165.026 20.672C165.41 19.88 165.926 19.208 166.574 18.656C167.222 18.104 167.966 17.684 168.806 17.396C169.67 17.108 170.582 16.964 171.542 16.964C172.526 16.964 173.414 17.108 174.206 17.396H181.442V20.204H177.158C177.494 20.588 177.794 21.068 178.058 21.644C178.322 22.196 178.454 22.784 178.454 23.408C178.454 24.368 178.274 25.22 177.914 25.964C177.554 26.708 177.062 27.344 176.438 27.872C175.814 28.376 175.082 28.76 174.242 29.024C173.402 29.288 172.502 29.42 171.542 29.42C171.11 29.42 170.642 29.372 170.138 29.276C169.658 29.18 169.178 29.036 168.698 28.844C167.882 29.372 167.474 29.984 167.474 30.68C167.474 31.904 168.638 32.516 170.966 32.516H174.71C177.014 32.516 178.73 32.84 179.858 33.488C180.986 34.136 181.55 35.216 181.55 36.728C181.55 37.592 181.31 38.396 180.83 39.14C180.374 39.908 179.714 40.568 178.85 41.12C177.986 41.696 176.93 42.14 175.682 42.452C174.458 42.788 173.09 42.956 171.578 42.956ZM171.542 27.116C172.55 27.116 173.414 26.78 174.134 26.108C174.854 25.436 175.214 24.5 175.214 23.3C175.214 22.148 174.854 21.224 174.134 20.528C173.414 19.832 172.55 19.484 171.542 19.484C170.534 19.484 169.658 19.832 168.914 20.528C168.194 21.224 167.834 22.148 167.834 23.3C167.834 24.5 168.194 25.436 168.914 26.108C169.658 26.78 170.534 27.116 171.542 27.116ZM171.938 40.472C172.874 40.472 173.714 40.376 174.458 40.184C175.226 40.016 175.874 39.788 176.402 39.5C176.93 39.212 177.338 38.876 177.626 38.492C177.914 38.132 178.058 37.748 178.058 37.34C178.058 36.572 177.746 36.056 177.122 35.792C176.498 35.528 175.562 35.396 174.314 35.396H171.182C170.63 35.396 170.138 35.372 169.706 35.324C169.274 35.3 168.878 35.228 168.518 35.108C167.774 35.516 167.246 35.936 166.934 36.368C166.646 36.824 166.502 37.28 166.502 37.736C166.502 38.576 166.97 39.236 167.906 39.716C168.842 40.22 170.186 40.472 171.938 40.472Z" fill="white"/>
<rect x="188.75" y="32.75" width="14.5" height="1.5" stroke="#EDEDED" stroke-width="1.5"/>
<path d="M14.76 59.04L14.3 60.64H17.62L17.16 59.04C16.9733 58.3467 16.78 57.64 16.58 56.92C16.38 56.1867 16.1867 55.4533 16 54.72H15.92C15.7333 55.4533 15.54 56.1867 15.34 56.92C15.1533 57.64 14.96 58.3467 14.76 59.04ZM10.4 66L14.64 52.92H17.36L21.6 66H19.14L18.14 62.46H13.78L12.76 66H10.4ZM38.8244 66V54.88H34.7044V52.92H45.2644V54.88H41.1444V66H38.8244ZM51.9966 66.24C50.5699 66.24 49.4499 65.8133 48.6366 64.96C47.8232 64.1067 47.4166 62.7867 47.4166 61V52.92H49.7366V61.18C49.7366 62.26 49.9366 63.04 50.3366 63.52C50.7366 63.9867 51.2899 64.22 51.9966 64.22C52.7166 64.22 53.2832 63.9867 53.6966 63.52C54.1099 63.04 54.3166 62.26 54.3166 61.18V52.92H56.5366V61C56.5366 62.8 56.1432 64.1267 55.3566 64.98C54.5699 65.82 53.4499 66.24 51.9966 66.24ZM59.6488 66V64.04H62.8088V54.88H59.6488V52.92H68.2888V54.88H65.1288V64.04H68.2888V66H59.6488ZM83.5931 69.88V56.18H85.4931L85.6731 57.3H85.7331C86.1598 56.9133 86.6465 56.5933 87.1931 56.34C87.7531 56.0733 88.3131 55.94 88.8731 55.94C89.5131 55.94 90.0798 56.06 90.5731 56.3C91.0798 56.5267 91.4998 56.86 91.8331 57.3C92.1798 57.74 92.4398 58.2667 92.6131 58.88C92.7998 59.4933 92.8931 60.18 92.8931 60.94C92.8931 61.78 92.7731 62.5333 92.5331 63.2C92.2931 63.8533 91.9665 64.4067 91.5531 64.86C91.1531 65.3 90.6865 65.64 90.1531 65.88C89.6331 66.12 89.0931 66.24 88.5331 66.24C88.0798 66.24 87.6131 66.14 87.1331 65.94C86.6665 65.74 86.2398 65.4533 85.8531 65.08H85.7931L85.9131 66.8V69.88H83.5931ZM88.0531 64.34C88.7598 64.34 89.3465 64.06 89.8131 63.5C90.2798 62.9267 90.5131 62.08 90.5131 60.96C90.5131 59.9733 90.3331 59.2067 89.9731 58.66C89.6131 58.1133 89.0331 57.84 88.2331 57.84C87.8598 57.84 87.4798 57.9333 87.0931 58.12C86.7065 58.3067 86.3131 58.6067 85.9131 59.02V63.44C86.2731 63.7733 86.6398 64.0067 87.0131 64.14C87.3998 64.2733 87.7465 64.34 88.0531 64.34ZM99.9453 66.24C99.3053 66.24 98.6853 66.1267 98.0853 65.9C97.4853 65.6733 96.9586 65.34 96.5053 64.9C96.052 64.46 95.6853 63.92 95.4053 63.28C95.1386 62.64 95.0053 61.9133 95.0053 61.1C95.0053 60.2867 95.1386 59.56 95.4053 58.92C95.6853 58.28 96.052 57.74 96.5053 57.3C96.9586 56.86 97.4853 56.5267 98.0853 56.3C98.6853 56.06 99.3053 55.94 99.9453 55.94C100.585 55.94 101.205 56.06 101.805 56.3C102.405 56.5267 102.932 56.86 103.385 57.3C103.839 57.74 104.199 58.28 104.465 58.92C104.745 59.56 104.885 60.2867 104.885 61.1C104.885 61.9133 104.745 62.64 104.465 63.28C104.199 63.92 103.839 64.46 103.385 64.9C102.932 65.34 102.405 65.6733 101.805 65.9C101.205 66.1267 100.585 66.24 99.9453 66.24ZM99.9453 64.36C100.745 64.36 101.372 64.0667 101.825 63.48C102.279 62.88 102.505 62.0867 102.505 61.1C102.505 60.1 102.279 59.3067 101.825 58.72C101.372 58.12 100.745 57.82 99.9453 57.82C99.1453 57.82 98.5186 58.12 98.0653 58.72C97.612 59.3067 97.3853 60.1 97.3853 61.1C97.3853 62.0867 97.612 62.88 98.0653 63.48C98.5186 64.0667 99.1453 64.36 99.9453 64.36ZM111.198 66.24C110.571 66.24 109.998 66.1267 109.478 65.9C108.958 65.66 108.511 65.32 108.138 64.88C107.778 64.44 107.498 63.9067 107.298 63.28C107.098 62.64 106.998 61.9133 106.998 61.1C106.998 60.3 107.118 59.58 107.358 58.94C107.598 58.3 107.918 57.76 108.318 57.32C108.731 56.88 109.198 56.54 109.718 56.3C110.238 56.06 110.778 55.94 111.338 55.94C111.898 55.94 112.391 56.04 112.818 56.24C113.244 56.44 113.651 56.7267 114.038 57.1H114.098L113.978 55.44V51.88H116.298V66H114.398L114.218 64.86H114.158C113.771 65.2467 113.318 65.5733 112.798 65.84C112.291 66.1067 111.758 66.24 111.198 66.24ZM111.758 64.34C112.571 64.34 113.311 63.9467 113.978 63.16V58.74C113.631 58.4067 113.284 58.1733 112.938 58.04C112.591 57.9067 112.238 57.84 111.878 57.84C111.531 57.84 111.204 57.9133 110.898 58.06C110.604 58.2067 110.344 58.42 110.118 58.7C109.891 58.9667 109.711 59.3 109.578 59.7C109.444 60.1 109.378 60.56 109.378 61.08C109.378 62.1467 109.584 62.96 109.998 63.52C110.411 64.0667 110.998 64.34 111.758 64.34ZM124.81 66.24C124.036 66.24 123.316 66.1267 122.65 65.9C121.996 65.6733 121.423 65.34 120.93 64.9C120.45 64.46 120.07 63.92 119.79 63.28C119.523 62.64 119.39 61.9133 119.39 61.1C119.39 60.2867 119.536 59.56 119.83 58.92C120.136 58.28 120.543 57.74 121.05 57.3C121.556 56.86 122.15 56.5267 122.83 56.3C123.51 56.06 124.223 55.94 124.97 55.94C125.77 55.94 126.47 56.0733 127.07 56.34C127.683 56.6067 128.196 56.9333 128.61 57.32L127.51 58.76C127.123 58.4533 126.73 58.22 126.33 58.06C125.943 57.9 125.53 57.82 125.09 57.82C124.103 57.82 123.303 58.12 122.69 58.72C122.076 59.3067 121.77 60.1 121.77 61.1C121.77 61.5933 121.85 62.04 122.01 62.44C122.17 62.84 122.39 63.1867 122.67 63.48C122.963 63.76 123.31 63.98 123.71 64.14C124.11 64.2867 124.55 64.36 125.03 64.36C125.59 64.36 126.096 64.2533 126.55 64.04C127.016 63.8267 127.443 63.5733 127.83 63.28L128.79 64.76C128.216 65.2533 127.583 65.6267 126.89 65.88C126.21 66.12 125.516 66.24 124.81 66.24ZM134.622 66.24C134.142 66.24 133.702 66.1667 133.302 66.02C132.902 65.8867 132.555 65.6933 132.262 65.44C131.969 65.1867 131.742 64.8867 131.582 64.54C131.422 64.18 131.342 63.7867 131.342 63.36C131.342 62.8133 131.469 62.3333 131.722 61.92C131.975 61.4933 132.375 61.1333 132.922 60.84C133.469 60.5467 134.169 60.3067 135.022 60.12C135.875 59.9333 136.909 59.8 138.122 59.72C138.082 59.16 137.882 58.7 137.522 58.34C137.162 57.98 136.582 57.8 135.782 57.8C135.222 57.8 134.669 57.9067 134.122 58.12C133.589 58.32 133.069 58.56 132.562 58.84L131.722 57.3C132.322 56.9533 133.009 56.64 133.782 56.36C134.555 56.08 135.362 55.94 136.202 55.94C137.575 55.94 138.622 56.3067 139.342 57.04C140.062 57.76 140.422 58.8067 140.422 60.18V66H138.542L138.362 64.78H138.302C137.782 65.18 137.202 65.5267 136.562 65.82C135.935 66.1 135.289 66.24 134.622 66.24ZM135.322 64.44C135.815 64.44 136.289 64.3333 136.742 64.12C137.209 63.8933 137.669 63.6 138.122 63.24V61.16C137.242 61.2267 136.509 61.32 135.922 61.44C135.335 61.5467 134.869 61.6867 134.522 61.86C134.175 62.0333 133.929 62.2333 133.782 62.46C133.635 62.6733 133.562 62.9133 133.562 63.18C133.562 63.62 133.729 63.94 134.062 64.14C134.409 64.34 134.829 64.44 135.322 64.44ZM147.974 66.24C147.054 66.24 146.174 66.0933 145.334 65.8C144.494 65.4933 143.767 65.1333 143.154 64.72L144.154 63.26C144.754 63.6467 145.387 63.9533 146.054 64.18C146.734 64.3933 147.474 64.5 148.274 64.5C148.954 64.5 149.454 64.3867 149.774 64.16C150.107 63.9333 150.274 63.6533 150.274 63.32C150.274 63.16 150.241 63.02 150.174 62.9C150.107 62.7667 149.974 62.64 149.774 62.52C149.574 62.4 149.294 62.2867 148.934 62.18C148.587 62.0733 148.127 61.96 147.554 61.84C146.234 61.5733 145.267 61.2 144.654 60.72C144.054 60.24 143.754 59.6267 143.754 58.88C143.754 58.0133 144.127 57.3067 144.874 56.76C145.621 56.2133 146.687 55.94 148.074 55.94C148.887 55.94 149.647 56.0733 150.354 56.34C151.061 56.6067 151.667 56.9067 152.174 57.24L151.114 58.66C150.634 58.3533 150.121 58.1133 149.574 57.94C149.027 57.7667 148.461 57.68 147.874 57.68C147.221 57.68 146.754 57.7867 146.474 58C146.194 58.2 146.054 58.4533 146.054 58.76C146.054 59.1067 146.254 59.3667 146.654 59.54C147.054 59.7133 147.707 59.9 148.614 60.1C149.401 60.2733 150.047 60.46 150.554 60.66C151.061 60.86 151.461 61.0867 151.754 61.34C152.061 61.58 152.274 61.8533 152.394 62.16C152.514 62.4667 152.574 62.8133 152.574 63.2C152.574 63.6267 152.474 64.0267 152.274 64.4C152.074 64.76 151.781 65.08 151.394 65.36C151.007 65.6267 150.527 65.84 149.954 66C149.381 66.16 148.721 66.24 147.974 66.24ZM161.726 66.24C160.98 66.24 160.346 66.14 159.826 65.94C159.32 65.74 158.906 65.46 158.586 65.1C158.28 64.7267 158.053 64.28 157.906 63.76C157.773 63.24 157.706 62.6667 157.706 62.04V58H155.086V56.28L157.806 56.18L158.106 53.1H160.006V56.18H164.486V58H160.006V62.04C160.006 62.8533 160.173 63.4533 160.506 63.84C160.853 64.2133 161.446 64.4 162.286 64.4C162.7 64.4 163.08 64.3667 163.426 64.3C163.773 64.22 164.106 64.12 164.426 64L164.866 65.68C164.426 65.8267 163.953 65.9533 163.446 66.06C162.94 66.18 162.366 66.24 161.726 66.24ZM179.531 69.88V56.18H181.431L181.611 57.3H181.671C182.097 56.9133 182.584 56.5933 183.131 56.34C183.691 56.0733 184.251 55.94 184.811 55.94C185.451 55.94 186.017 56.06 186.511 56.3C187.017 56.5267 187.437 56.86 187.771 57.3C188.117 57.74 188.377 58.2667 188.551 58.88C188.737 59.4933 188.831 60.18 188.831 60.94C188.831 61.78 188.711 62.5333 188.471 63.2C188.231 63.8533 187.904 64.4067 187.491 64.86C187.091 65.3 186.624 65.64 186.091 65.88C185.571 66.12 185.031 66.24 184.471 66.24C184.017 66.24 183.551 66.14 183.071 65.94C182.604 65.74 182.177 65.4533 181.791 65.08H181.731L181.851 66.8V69.88H179.531ZM183.991 64.34C184.697 64.34 185.284 64.06 185.751 63.5C186.217 62.9267 186.451 62.08 186.451 60.96C186.451 59.9733 186.271 59.2067 185.911 58.66C185.551 58.1133 184.971 57.84 184.171 57.84C183.797 57.84 183.417 57.9333 183.031 58.12C182.644 58.3067 182.251 58.6067 181.851 59.02V63.44C182.211 63.7733 182.577 64.0067 182.951 64.14C183.337 64.2733 183.684 64.34 183.991 64.34ZM197.903 66.24C196.756 66.24 195.883 65.9067 195.283 65.24C194.696 64.5733 194.403 63.6333 194.403 62.42V53.7H191.123V51.88H196.703V62.54C196.703 63.2067 196.869 63.68 197.203 63.96C197.549 64.2267 197.969 64.36 198.463 64.36C198.983 64.36 199.543 64.2333 200.143 63.98L200.683 65.68C200.203 65.8667 199.763 66.0067 199.363 66.1C198.963 66.1933 198.476 66.24 197.903 66.24ZM206.575 66.24C206.095 66.24 205.655 66.1667 205.255 66.02C204.855 65.8867 204.508 65.6933 204.215 65.44C203.922 65.1867 203.695 64.8867 203.535 64.54C203.375 64.18 203.295 63.7867 203.295 63.36C203.295 62.8133 203.422 62.3333 203.675 61.92C203.928 61.4933 204.328 61.1333 204.875 60.84C205.422 60.5467 206.122 60.3067 206.975 60.12C207.828 59.9333 208.862 59.8 210.075 59.72C210.035 59.16 209.835 58.7 209.475 58.34C209.115 57.98 208.535 57.8 207.735 57.8C207.175 57.8 206.622 57.9067 206.075 58.12C205.542 58.32 205.022 58.56 204.515 58.84L203.675 57.3C204.275 56.9533 204.962 56.64 205.735 56.36C206.508 56.08 207.315 55.94 208.155 55.94C209.528 55.94 210.575 56.3067 211.295 57.04C212.015 57.76 212.375 58.8067 212.375 60.18V66H210.495L210.315 64.78H210.255C209.735 65.18 209.155 65.5267 208.515 65.82C207.888 66.1 207.242 66.24 206.575 66.24ZM207.275 64.44C207.768 64.44 208.242 64.3333 208.695 64.12C209.162 63.8933 209.622 63.6 210.075 63.24V61.16C209.195 61.2267 208.462 61.32 207.875 61.44C207.288 61.5467 206.822 61.6867 206.475 61.86C206.128 62.0333 205.882 62.2333 205.735 62.46C205.588 62.6733 205.515 62.9133 205.515 63.18C205.515 63.62 205.682 63.94 206.015 64.14C206.362 64.34 206.782 64.44 207.275 64.44ZM216.607 70.04C216.341 70.04 216.087 70.02 215.847 69.98C215.607 69.9533 215.394 69.9067 215.207 69.84L215.647 68.04C215.781 68.08 215.914 68.1133 216.047 68.14C216.181 68.1667 216.321 68.18 216.467 68.18C217.094 68.18 217.594 68.02 217.967 67.7C218.341 67.3933 218.627 66.9933 218.827 66.5L219.067 65.88L214.667 56.18H216.967L218.987 61C219.174 61.44 219.354 61.9067 219.527 62.4C219.701 62.8933 219.881 63.3867 220.067 63.88H220.147C220.294 63.4133 220.454 62.9333 220.627 62.44C220.801 61.9467 220.967 61.4667 221.127 61L222.907 56.18H225.087L220.987 66.44C220.774 67 220.534 67.5 220.267 67.94C220.014 68.38 219.714 68.7533 219.367 69.06C219.021 69.38 218.621 69.62 218.167 69.78C217.714 69.9533 217.194 70.04 216.607 70.04ZM232.459 66.24C231.713 66.24 231.013 66.1267 230.359 65.9C229.706 65.66 229.133 65.32 228.639 64.88C228.159 64.44 227.779 63.9 227.499 63.26C227.219 62.62 227.079 61.8933 227.079 61.08C227.079 60.28 227.219 59.5667 227.499 58.94C227.779 58.3 228.153 57.76 228.619 57.32C229.099 56.8667 229.639 56.5267 230.239 56.3C230.853 56.06 231.493 55.94 232.159 55.94C232.893 55.94 233.539 56.06 234.099 56.3C234.659 56.5267 235.133 56.8467 235.519 57.26C235.906 57.66 236.199 58.1467 236.399 58.72C236.599 59.2933 236.699 59.92 236.699 60.6C236.699 60.8267 236.686 61.0467 236.659 61.26C236.646 61.46 236.626 61.6267 236.599 61.76H229.379C229.513 62.68 229.879 63.36 230.479 63.8C231.079 64.24 231.839 64.46 232.759 64.46C233.279 64.46 233.759 64.3867 234.199 64.24C234.639 64.0933 235.079 63.8933 235.519 63.64L236.299 65.08C235.779 65.4267 235.186 65.7067 234.519 65.92C233.866 66.1333 233.179 66.24 232.459 66.24ZM232.219 57.72C231.539 57.72 230.939 57.92 230.419 58.32C229.913 58.72 229.586 59.32 229.439 60.12H234.659C234.579 59.32 234.326 58.72 233.899 58.32C233.486 57.92 232.926 57.72 232.219 57.72ZM240.452 66V56.18H242.352L242.552 58.4H242.612C243.118 57.6 243.725 56.9933 244.432 56.58C245.152 56.1533 245.938 55.94 246.792 55.94C247.192 55.94 247.532 55.9733 247.812 56.04C248.105 56.0933 248.398 56.1933 248.692 56.34L248.212 58.28C247.892 58.1733 247.605 58.1 247.352 58.06C247.112 58.0067 246.805 57.98 246.432 57.98C245.752 57.98 245.098 58.1733 244.472 58.56C243.845 58.9467 243.278 59.62 242.772 60.58V66H240.452Z" fill="white"/>
</svg>
